<?xml version="1.0" encoding="utf-8"?>

<!DOCTYPE svg PUBLIC "-//W3C//DTD SVG 1.1//EN" "http://www.w3.org/Graphics/SVG/1.1/DTD/svg11.dtd">
<svg version="1.1" id="Layer_1" xmlns="http://www.w3.org/2000/svg" xmlns:xlink="http://www.w3.org/1999/xlink" x="0px" y="0px"
	 viewBox="-21.9258 -66.3742 815.5005 1409.5199" enable-background="new -21.9258 -66.3742 815.5005 1409.5199"
	 xml:space="preserve">
<g>
	<path fill="#7F6A5C" stroke="#7F6A5C" stroke-width="0.2" d="M450.13,13.17c26.37-2.93,53.23-1.51,79.12,4.35
		c11.18,1.95,21.81,6.24,31.99,11.16c7.46,3.14,14.4,7.39,20.78,12.35c5.32,3.17,9.31,7.99,14.01,11.94
		c3.59,3.12,6.2599,7.08,9.27,10.71c6.33,7.35,10.85,16,15.59,24.39c2.42,4.19,4.14,8.72,5.74,13.28
		c5.35,13.63,9.91,27.7,11.8,42.27c3.01,15.61,4.47,31.47,5.39,47.33c-0.08,7.95,1.25,15.98-0.11,23.89
		c-0.64,2.44-1.14,5.23-3.15,6.95c-2.67,2.37-5.85,4.53-9.56,4.58c-7.26,0.61-13.77-5.6-14.77-12.58
		c-1.08-7.06-1.47-14.22-2.87-21.23c-2.19-10.29-6.79-19.86-12.14-28.84c-6.29-9.2-14.68-16.79-24.04-22.78
		c3.68,5.88,8.46,11.07,11.36,17.44c2.92,6.37,6.09,12.63,8.62,19.18c-19.99,4.73-40.77,4.12-61.11,2.64
		c-14.58-1.09-29.07-3.07-43.44-5.72c-17.68-2.18-34.82-7.31-51.89-12.21c-12.96-3.1-25.03-8.89-37.45-13.55
		c-8.02-3.37-15.44-7.94-23.16-11.89c-2.9-1.56-5.56-3.51-8.26-5.38c-7.16,5.68-12.54,13.19-17.68,20.66
		c-5.86,10.82-11.1,22.16-13.69,34.26c-1.63,9.81-3.41,19.66-3.46,29.64c-0.14,3.37,0.03,7.05-1.88,10.01
		c-4.47,6.71-14.76,9.15-21.42,4.28c-3.16-2.16-4.55-5.93-5.39-9.5c-0.64-6.58-2.62-12.91-3.67-19.42
		c-1.29-13.09-3.06-26.19-2.85-39.38c0.15-7.66-0.45-15.39,0.99-22.97c1.09-5.34,1.42-10.85,3.2-16.03
		c2.94-10.02,7.93-19.23,12.45-28.57c8.25-13.02,17.43-25.68,29.03-35.96c5.68-5.4,12.06-10.03,18.32-14.74
		c8.13-4.93,15.91-10.59,24.82-14.08c9.53-4.13,19.1-8.32,29.2-10.88C429.88,16.68,439.9,14.3,450.13,13.17z"/>
	<path fill="#F9DBCF" stroke="#F9DBCF" stroke-width="0.2" d="M354.17,152.11c5.14-7.47,10.52-14.98,17.68-20.66
		c2.7,1.87,5.36,3.82,8.26,5.38c7.72,3.95,15.14,8.52,23.16,11.89c12.42,4.66,24.49,10.45,37.45,13.55
		c17.07,4.9,34.21,10.03,51.89,12.21c14.37,2.65,28.86,4.63,43.44,5.72c20.34,1.48,41.12,2.09,61.11-2.64
		c-2.53-6.55-5.7-12.81-8.62-19.18c-2.9-6.37-7.68-11.56-11.36-17.44c9.36,5.99,17.75,13.58,24.04,22.78
		c5.35,8.98,9.95,18.55,12.14,28.84c1.4,7.01,1.79,14.17,2.87,21.23c1,6.98,7.51,13.19,14.77,12.58c3.71-0.05,6.89-2.21,9.56-4.58
		c8.12,6.22,13.32,15.93,13.6,26.21c0.63,14.98-2.14,30.76-10.54,43.43c-3.98,5.06-7.15,10.86-12.21,14.98
		c-4.23,4.16-8.3,8.58-13.56,11.49c-6.66,5.38-14.77,8.39-21.85,13.11c-3.89,2.37-7.25,5.49-11.12,7.89
		c-7.29,4.22-13.94,9.45-21.05,13.95c-6.93,3.91-12.93,9.25-19.91,13.08c-9.84,7.42-20.9,12.97-30.74,20.38
		c-1.38,4.37,0.18,9.12-0.06,13.65c-4.36,2.93-8.03,6.72-12.11,9.99c-9.22,7.12-17.89,14.94-27.07,22.09
		c-1.55,1.5-3.48-0.28-5.01-0.91c-7.48-4.61-15.51-8.28-22.74-13.3c-7.61-4.65-15.17-9.39-22.38-14.65
		c-1.38-1.19-3.28-2.37-3.33-4.4c-0.35-4.3-0.15-8.62-0.56-12.91c-0.02-2.27,0.03-4.53-0.02-6.79c-6.31-2.58-12.06-6.25-17.72-10.01
		c-5.38-4.11-11.59-7-16.68-11.51c-7.54-5.07-14.67-10.67-21.9-16.17c-8.23-5.68-15.45-12.7-23.94-18.02
		c-7.51-3.94-15.09-7.96-21.72-13.31c-4.88-4.45-10.57-8.07-14.56-13.43c-9.15-8.93-15.51-20.96-16.91-33.73
		c-0.31-9.82,2.24-19.71,7.33-28.12c3.88-5.58,9.52-9.51,14.53-13.98c0.84,3.57,2.23,7.34,5.39,9.5c6.66,4.87,16.95,2.43,21.42-4.28
		c1.91-2.96,1.74-6.64,1.88-10.01c0.05-9.98,1.83-19.83,3.46-29.64C343.07,174.27,348.31,162.93,354.17,152.11z"/>
	<path fill="#FFFFFF" stroke="#FFFFFF" stroke-width="0.2" d="M419.43,400.03c0.42-4.71-0.19-9.47,0.49-14.16
		c0.41,4.29,0.21,8.61,0.56,12.91c0.05,2.03,1.95,3.21,3.33,4.4c7.21,5.26,14.77,10,22.38,14.65c7.23,5.02,15.26,8.69,22.74,13.3
		c1.53,0.63,3.46,2.41,5.01,0.91c9.18-7.15,17.85-14.97,27.07-22.09c4.08-3.27,7.75-7.06,12.11-9.99
		c8.99,7.96,19.06,14.62,29.6,20.35c3.2-3.26,8.4301-5.04,12.61-2.51c8.77,4.62,14.55,13.13,19.3,21.55
		c1.2,2.59,2.89,5.03,3.39,7.89c1.79,8.41,3.74,16.94,2.79,25.6c-1.21,11.57-1.23,23.23-2.36,34.79
		c-5.95-0.23-12.02-0.43-17.83,1.05c-4.92,1.4-7.55,6.05-9.86,10.21c7.92,2.25,15.47,5.69,23.51,7.54
		c-1.34,7.56-4.12,14.75-6.91,21.87c-2.86,9.51-7.88,18.14-12.04,27.1c-3.72,9.2-9.54,17.33-13.68,26.3199
		c-3.3,5.61-6.75,11.13-10.2,16.66c-3.43,6.98-8.65,12.83-12.58,19.51c-4.66,6.92-9.97,13.38-15.02,20.02
		c-3.14,4.07-7.19,7.31-10.32,11.4c-9.54-1.82-19.3-1.39-28.93-0.6c-5.53-6.25-10.57-12.91-15.88-19.34
		c-3.93-6.61-9.24-12.26-13.12-18.91c-4.72-7.61-10.23-14.72-14.36-22.67c-3.88-5.89-7.65-11.85-10.95-18.08
		c-3.1-5.84-7.03-11.19-9.98-17.11c-3.53-7.2599-8-14.03-11.74-21.18c-2.5-6-6.24-11.35-8.96-17.24
		c11.23-4.59,21.34-11.6,32.91-15.39c-1.79-4.85-5.57-9.17-10.66-10.59c-8.3-2.46-17.02-1.3-25.52-1.2
		c-2.37-6.42-6.76-11.9-8.69-18.5c-2.24-6.27-1.88-13.01-1.71-19.55c0.14-7.14,3.24-13.74,6.15-20.1c2.92-4.47,4.83-9.51,8.07-13.76
		c5.65-7.83,11.04-16.15,18.86-22.03c4.1-3.23,10.35-1.97,13.75,1.68C415.4,410.05,417.71,405.14,419.43,400.03 M497.03,436.09
		c-2.24,1.09-3.69,3.17-5.2,5.06c-10.61-0.07-21.22-0.16-31.83-0.2c-4.81-0.95-9.35-3.03-14.19-3.9
		c-11.43-1.46-22.73-4.46-34.32-4.19c-0.73,6.43-2.46,12.71-2.74,19.2c-0.94,10.74,0.85,21.47,3.47,31.86
		c1.5,3.73,2.52,7.77,4.74,11.16c5.73-2.16,11.27-4.79,16.87-7.26c5.25-2.92,11.15-4.45,16.11-7.93c4.82-2.41,8.76-6.09,13.02-9.29
		c9.65,0.55,19.33,0.34,28.98,0.15c15.29,5.98,30.76,11.49,46.41,16.43c1.73-8.62,2.6-17.42,2.7401-26.21
		c0.33-11.69-0.04-23.49-2.67-34.93C524.1,425.7,509.49,428.91,497.03,436.09 M478.37,502.41c-2.59,0.88-4.55,3.14-5.28,5.74
		c-0.88,3.91,1.77,8.11,5.58,9.2c4.14,1.52,8.82-1.72,9.75-5.82C490.01,506.05,483.73,500.16,478.37,502.41 M478.37,558.43
		c-2.86,0.94-5.02,3.63-5.37,6.62c-0.57,3.65,2.21,7.3,5.66,8.32c5.17,1.91,11.18-3.62,9.83-8.93
		C487.71,560.04,482.67,556.66,478.37,558.43z"/>
	<path fill="#F9DBCF" stroke="#F9DBCF" stroke-width="0.2" d="M131.64,418.59c2.38-5.18,8.49-6.34,13.56-7.05
		c8.01-1.27,16.05,0.25,23.98,1.3c7.92,0.74,15.15,4.35,22.31,7.55c6.9,3.73,14.29,6.66,20.35,11.76
		c12.11,8.08,21.72,19.29,29.66,31.39c8.65,15.5,13.63,33.38,12.39,51.2c-0.63,3.72-0.94,7.51-1.82,11.18
		c-0.47,2.29-2.75,3.44-4.46,4.72c-6.63,4.18-13.34,8.31-20.51,11.51c-13.2,5.47-26.84,10.29-41.16,11.58
		c-16.82,0.3-32.87-5.72-48.61-10.93c-8.93-3.45-17.34-8.07-26.03-12.07c-6.78-3.31-12.82-7.87-19.36-11.58
		c-9.45-6.45-18.65-13.86-24.41-23.96c-5.16-10.94-7.1-23.8-3.01-35.42c2.91-11.22,11.72-21.86,23.61-23.77
		c14.07-4.21,29.1-1.71,42.67,3.11c5.41,2.19,10.72,4.61,16.17,6.72c-5.19-4.89-10.4-9.94-13.87-16.27
		C131.15,426.32,130.53,422.21,131.64,418.59z"/>
	<path fill="#212930" stroke="#212930" stroke-width="0.2" d="M497.03,436.09c12.46-7.18,27.07-10.39,41.39-10.05
		c2.63,11.44,3,23.24,2.67,34.93c-0.14,8.79-1.01,17.59-2.7401,26.21c-15.65-4.94-31.12-10.45-46.41-16.43
		c-9.65,0.19-19.33,0.4-28.98-0.15c-4.26,3.2-8.2,6.88-13.02,9.29c-4.96,3.48-10.86,5.01-16.11,7.93c-5.6,2.47-11.14,5.1-16.87,7.26
		c-2.22-3.39-3.24-7.43-4.74-11.16c-2.62-10.39-4.41-21.12-3.47-31.86c0.28-6.49,2.01-12.77,2.74-19.2
		c11.59-0.27,22.89,2.73,34.32,4.19c4.84,0.87,9.38,2.95,14.19,3.9c10.61,0.04,21.22,0.13,31.83,0.2
		C493.34,439.26,494.79,437.18,497.03,436.09z"/>
	<path fill="#212930" stroke="#212930" stroke-width="0.2" d="M577.98,446.27l0.83-0.6c7.97,0.33,15.86,1.73,23.77,2.76
		c14.31,1.35,28.13,6.85,39.78,15.2c7.37,6.04,13.8,13.4,18.21,21.89c5.93,12.12,11.18,24.67,14.36,37.82
		c4.26,12.3799,8.54,24.81,11.35,37.6299c4.7,18.51,9.56,37.07,11.89,56.05c5.63,31.74,9.21,63.84,10.99,96.02
		c0.32,6.31,0.09,12.64,0.15,18.96c0.07,9.79-4.94,18.88-11.31,26c-8.23,7.52-18.67,12.67-29.78,14.07
		c-16.97,3.44-33.96,6.87-51.14,9.15c-1.62,0.14-3.23,0.3-4.84,0.46c0.21,1.15,0.42,2.31,0.63,3.49c2.06,12.5,0.77,25.22,1.17,37.82
		c-1.83,53.8-6.11,107.5-10.85,161.12c-1.18,9.24-1.03,18.58-2.08,27.84c-3.21,34.4899-6.89,68.94-10.84,103.35
		c-0.28,9.1399-1.82,18.1599-2.88,27.23c-1.88,14.38-3.63,28.7899-6.05,43.09c-0.55,5.49-6.9,6.67-10.77,9.21
		c2,9.4401,6.04,18.3101,7.78,27.8101c0.91,4.67,2.88,9.3099,2.26,14.16c-1.33,4.59-4.34,8.75-8.35,11.38
		c-10.75,6.7599-23.1,10.5599-35.58,12.5199c-10.46,2.04-21.16,1.15-31.74,1.26c-9.84-0.6799-20.22-2.86-28.03-9.22
		c-0.64-1.34-1.25-1.33-1.82,0.03c-6.18,5.21-13.82,8.5699-21.82,9.6699c-12.11,2.7401-24.61,3.05-36.95,2.26
		c-13.21-1.63-27.05-3.1399-38.48-10.5399c-5.15-3.6901-11.12-7.36-13.24-13.6901c-1.28-5.2999-0.35-10.83,0.98-16.02
		c2.13-9.4299,5.08-18.63,8.18-27.7699c0.98-3.0801,1.99-6.2101,2.11-9.4601c-4.6-4.0399-11.87-7.0599-11.84-14.24
		c-4.26-49.9399-8.08-99.9199-11.77-149.9c-0.44-4.71-0.14-9.45-0.48-14.16c-4.56-63.02-8.59-126.1-11.54-189.21
		c-0.65-7.58,0.11-15.19-0.46-22.77c-0.61-17.66-1.52-35.32-1.18-53c0.14-10.29,0.1-20.57,0.03-30.85
		c-0.11-6.9-0.1-13.81,0.33-20.69c1.66-0.58,0.85-3.9301-0.77-2.2401c-0.04,0.48-0.1,1.45-0.14,1.9301
		c-2.44,8.98-5.67,17.84-9.93,26.14c-2.53,5.17-7.65,8.31-10.93,12.94c-3.92,5.34-8.05,10.59-13.07,14.97
		c-10.78,8.28-24.48,13.28-38.19,11.83c-11.7-0.75-22.46-6.33-31.69-13.24c-3.9-4.1-8.17-8-11.01-12.95
		c-4.08-7.75-8.69-15.2-12.86-22.9c-3.58-8.62-8.28-16.72-12.06-25.26c-4.55-11.64-10.59-22.69-14.38-34.63
		c-3.63-9.18-7-18.46-10.09-27.82c-2.07-8.51-4.7-16.86-6.72-25.37c-0.6-3.02-1.44-6.2-0.6-9.25c1.74-1.55,4.12-1.94,6.29-2.55
		c5.87-1.34,11.68-3.01,17.25-5.34c0.44,2.47,0.83,4.95,1.19,7.44c12.23-3.94,23.91-9.43,35.04-15.8199
		c9.39-4.22,17.7-10.3701,26.65-15.39c3.99-2.67,7.63-5.84,11.17-9.06c3.43,5.1,6.45,10.54,8.68,16.28
		c0.79,2.42,1.71,4.81,2.79,7.14c0.15-2.79,0.22-5.57,0.25-8.36c0.36-12.79,3.15-25.31,5.32-37.86
		c3.27-12.38,7.61-24.62,14.25-35.61c3.81-4.48,8.17-8.51,12.63-12.33c8.75-5.47,17.2-11.74,27.06-15.14
		c11.72-5.37,24.15-9.59,36.99-11.1c-2.91,6.36-6.01,12.96-6.15,20.1c-0.17,6.54-0.53,13.28,1.71,19.55
		c1.93,6.6,6.32,12.08,8.69,18.5c8.5-0.1,17.22-1.26,25.52,1.2c5.09,1.42,8.87,5.74,10.66,10.59c-11.57,3.79-21.68,10.8-32.91,15.39
		c2.72,5.89,6.46,11.24,8.96,17.24c3.74,7.15,8.21,13.92,11.74,21.18c2.95,5.92,6.88,11.27,9.98,17.11
		c3.3,6.23,7.07,12.19,10.95,18.08c4.13,7.95,9.64,15.06,14.36,22.67c3.88,6.65,9.19,12.3,13.12,18.91
		c5.31,6.43,10.35,13.09,15.88,19.34c-8.42,1.08-16.87,2.64-24.67,6.13c-4.93,1.81-9.88,5.7599-10.52,11.28
		c0,4.92,4.21,8.24,7.08,11.74c-5.09,1.41-10.42,2.05-15.24,4.31c-6.91,2.69-13.19,6.69-19.43,10.63
		c-4.59,3.69-8.67,8.07-12.06,12.89c-3.97,7.28-4.96,16.15-2.81,24.17c1.32,8.48,7.62,14.89,13.51,20.64
		c6.32,4.56,12.95,8.88,20.24,11.74c18.6,6.62,38.55,9.86,58.29,8.02c13.27-0.8,26.16-4.18,39-7.36
		c8.64-2.58,16.88-6.27,25.21-9.6801c12.5-0.0099,25.03,1.3101,37.52-0.1c-1.3-4.25-2.19-8.62-2.58-13.04
		c-3.15-20.61-6.8-41.34-6.08-62.26c-10.67,0.38-21.35,0.87-32.01,0.15c-6.5-8.53-14.9-15.47-24.12-20.85
		c-7.22-3.25-14.57-6.37-22.4-7.81c3.13-4.09,7.18-7.33,10.32-11.4c5.05-6.64,10.36-13.1,15.02-20.02
		c3.93-6.68,9.15-12.53,12.58-19.51c3.45-5.53,6.9-11.05,10.2-16.66c4.14-8.99,9.96-17.12,13.68-26.3199
		c4.16-8.96,9.18-17.59,12.04-27.1c2.79-7.12,5.57-14.31,6.91-21.87c-8.04-1.85-15.59-5.29-23.51-7.54
		c2.31-4.16,4.94-8.81,9.86-10.21c5.81-1.48,11.88-1.28,17.83-1.05c1.13-11.56,1.15-23.22,2.36-34.79c0.95-8.66-1-17.19-2.79-25.6
		L577.98,446.27 M339,687.3C337.45,690.28,342.33,687.43,339,687.3z"/>
	<path fill="#212930" stroke="#212930" stroke-width="0.2" d="M478.37,502.41c5.36-2.25,11.64,3.64,10.05,9.12
		c-0.93,4.1-5.61,7.34-9.75,5.82c-3.81-1.09-6.46-5.29-5.58-9.2C473.82,505.55,475.78,503.29,478.37,502.41z"/>
	<path fill="#FFFFFF" stroke="#FFFFFF" stroke-width="0.2" d="M252.07,525.92c0.88-3.67,1.19-7.46,1.82-11.18
		c0.4,4.85-2.14,10.21,0.75,14.61c3,5.58,6.09,11.12,9.47,16.48c-3.54,3.22-7.18,6.39-11.17,9.06
		c-8.95,5.02-17.26,11.17-26.65,15.39c-11.13,6.39-22.81,11.8799-35.04,15.8199c-0.36-2.49-0.75-4.97-1.19-7.44
		c-1.27-8.31-1.36-16.93-4.12-24.93c14.32-1.29,27.96-6.11,41.16-11.58c7.17-3.2,13.88-7.33,20.51-11.51
		C249.32,529.36,251.6,528.21,252.07,525.92z"/>
	<path fill="#212930" stroke="#212930" stroke-width="0.2" d="M478.37,558.43c4.3-1.77,9.34,1.61,10.12,6.01
		c1.35,5.31-4.66,10.84-9.83,8.93c-3.45-1.02-6.23-4.67-5.66-8.32C473.35,562.06,475.51,559.37,478.37,558.43z"/>
	<path fill="#7F6A5C" stroke="#7F6A5C" stroke-width="0.2" d="M274.76,565.24c0.33-1.47,0.67-2.92,1.07-4.35
		c-0.03,2.79-0.1,5.57-0.25,8.36c-1.08-2.33-2-4.72-2.79-7.14C273.46,563.13,274.1,564.19,274.76,565.24z"/>
	<path fill="#F9DBCF" stroke="#F9DBCF" stroke-width="0.2" d="M464.59,668.71c9.63-0.79,19.39-1.22,28.93,0.6
		c7.83,1.44,15.18,4.56,22.4,7.81c9.22,5.38,17.62,12.32,24.12,20.85c1.16,25.07,2.69,50.14,3.15,75.25
		c-8.33,3.41-16.57,7.1-25.21,9.6801c-12.84,3.18-25.73,6.56-39,7.36c-19.74,1.84-39.69-1.4-58.29-8.02
		c-7.29-2.86-13.92-7.18-20.24-11.74c-5.89-5.75-12.19-12.16-13.51-20.64c-2.15-8.02-1.16-16.89,2.81-24.17
		c3.39-4.82,7.47-9.2,12.06-12.89c6.24-3.94,12.52-7.94,19.43-10.63c4.82-2.26,10.15-2.9,15.24-4.31c-2.87-3.5-7.08-6.82-7.08-11.74
		c0.64-5.52,5.59-9.47,10.52-11.28C447.72,671.35,456.17,669.79,464.59,668.71z"/>
	<path fill="#7F6A5C" stroke="#7F6A5C" stroke-width="0.2" d="M339,687.3C342.33,687.43,337.45,690.28,339,687.3z"/>
	<path fill="#7F6A5C" stroke="#7F6A5C" stroke-width="0.2" d="M338.19,690.16c1.62-1.69,2.43,1.66,0.77,2.2401l-0.91-0.31
		C338.09,691.61,338.15,690.64,338.19,690.16z"/>
	<path fill="#FFFFFF" stroke="#FFFFFF" stroke-width="0.2" d="M540.04,697.97c10.66,0.72,21.34,0.23,32.01-0.15
		c-0.72,20.92,2.93,41.65,6.08,62.26c0.39,4.42,1.28,8.79,2.58,13.04c-12.4901,1.41-25.02,0.09-37.52,0.1
		C542.73,748.11,541.2,723.04,540.04,697.97z"/>
	<path fill="#7F6A5C" stroke="#7F6A5C" stroke-width="0.2" d="M337.97,713.08l0.66,0.01c0.07,10.28,0.11,20.56-0.03,30.85
		l-0.63,0.03C337.99,733.67,337.99,723.37,337.97,713.08z"/>
	<path fill="#FFFFFF" stroke="#FFFFFF" stroke-width="0.2" d="M612.24,781.68c1.61-0.16,3.22-0.32,4.84-0.46
		c-1.41,0.29-2.85,0.47-4.27,0.69c0.02,0.82,0.05,2.45,0.06,3.26C612.66,783.99,612.45,782.83,612.24,781.68z"/>
	<path fill="#7F6A5C" stroke="#7F6A5C" stroke-width="0.2" d="M475.09,1252.77c0.57-1.36,1.18-1.37,1.82-0.03
		C476.46,1252.75,475.55,1252.76,475.09,1252.77z"/>
</g>
</svg>
